HIERARCHY
ROOT Hips
{
	OFFSET	0.00	0.00	0.00
	CHANNELS 6 Xposition Yposition Zposition Zrotation Xrotation Yrotation
	JOINT Spine
	{
		OFFSET	 0.00	0.01	 0.00
		CHANNELS 3 Zrotation Xrotation Yrotation
		JOINT Spine1
		{
			OFFSET	 0.00	 2.45913012437421	 0.00
			CHANNELS 3 Zrotation Xrotation Yrotation
            JOINT Neck
            {
                OFFSET	 0.00	 2.48462964506057	 0.00
                CHANNELS 3 Zrotation Xrotation Yrotation
                JOINT Head
                {
                    OFFSET	 0.00	 0.927524780924562	 0.00
                    CHANNELS 3 Zrotation Xrotation Yrotation
                    End Site 
                    {
                        OFFSET	 0.00	 1.14999962169752	 0.00
                    }
                }
            }
			JOINT LeftShoulder
			{
				OFFSET	 0.00	 2.48462964506057	 0.00
				CHANNELS 3 Zrotation Xrotation Yrotation
				JOINT LeftUpArm
				{
					OFFSET	 0.00	 1.24881979654096	 0.00
					CHANNELS 3 Zrotation Xrotation Yrotation
					JOINT LeftForeArm
					{
						OFFSET	 0.00	2.59758046908119	 0.00
						CHANNELS 3 Zrotation Xrotation Yrotation
						JOINT LeftHand
						{
							OFFSET	 0.00	2.45542024364365	 0.00
							CHANNELS 3 Zrotation Xrotation Yrotation
							JOINT LeftHandThumb 
							{
								OFFSET	 0.00	0.00	 0.00
								CHANNELS 3 Zrotation Xrotation Yrotation
								End Site
								{
									OFFSET	 0.00	0.00	1.00000003353624
								}
							}
							JOINT L_Wrist_End 
							{
								OFFSET	 0.00	0.99999967115358	 0.00
								CHANNELS 3 Zrotation Xrotation Yrotation
								End Site 
								{
									OFFSET	 0.00	 0.00	 0.00
								}
							}
						}
					}
				}
			}
			JOINT RightShoulder
			{
				OFFSET	 0.00	 2.48462964506057	 0.00
				CHANNELS 3 Zrotation Xrotation Yrotation
				JOINT RightUpArm
				{
					OFFSET	 0.00	 1.24881979654096	 0.00
					CHANNELS 3 Zrotation Xrotation Yrotation
					JOINT RightForeArm
					{
						OFFSET	 0.00	2.59758046908119	 0.00
						CHANNELS 3 Zrotation Xrotation Yrotation
						JOINT RightHand
						{
							OFFSET	 0.00	2.45542024364365	 0.00
							CHANNELS 3 Zrotation Xrotation Yrotation
							JOINT RightHandThumb 
							{
								OFFSET	 0.00	0.00	 0.00
								CHANNELS 3 Zrotation Xrotation Yrotation
								End Site
								{
									OFFSET	 0.00	0.00	1.00000003353624
								}
							}
							JOINT R_Wrist_End 
							{
								OFFSET	 0.00	0.99999967115358	 0.00
								CHANNELS 3 Zrotation Xrotation Yrotation
								End Site 
								{
									OFFSET	 0.00	 0.00	 0.00
								}
							}
						}
					}
				}
			}
		}
	}
	JOINT LeftUpLeg
	{
		OFFSET	 1.2719394002717	 0.00	 0.00
		CHANNELS 3 Zrotation Xrotation Yrotation
		JOINT LeftLowLeg
		{
			OFFSET	 0.00	-4.3429100912261	 0.00
			CHANNELS 3 Zrotation Xrotation Yrotation
			JOINT LeftFoot
			{
				OFFSET	 0.00	-4.48767017425826	 0.00
				CHANNELS 3 Zrotation Xrotation Yrotation
				JOINT LeftToeBase
                {
                    OFFSET	 0.00	0.00	 1.51507020887566
                    CHANNELS 3 Zrotation Xrotation Yrotation
                    End Site 
                    {
                        OFFSET	 0.00	0.00	 0.75000010571191
                    }
                }
			}
		}
	}
	JOINT RightUpLeg
	{
		OFFSET	 -1.2719393604653	 0.00	 0.00
		CHANNELS 3 Zrotation Xrotation Yrotation
		JOINT RightLowLeg
		{
			OFFSET	 0.00	-4.3429100912261	 0.00
			CHANNELS 3 Zrotation Xrotation Yrotation
			JOINT RightFoot
			{
				OFFSET	 0.00	-4.48767017425826	 0.00
				CHANNELS 3 Zrotation Xrotation Yrotation
				JOINT RightToeBase
                {
                    OFFSET	 0.00	0.00	 1.51507020887566
                    CHANNELS 3 Zrotation Xrotation Yrotation
                    End Site 
                    {
                        OFFSET	 0.00	0.00	 0.749999965609858
                    }
                }   
			}
		}
	}
}
MOTION 
Frames:	20 
Frame Time: 0.02 
  -1.3870799255371093 4.162569885253906 9.128980102539062 93.9823 82.8505 264.598 8.2609 -17.5345 6.4848 -9.32446 15.1483 2.86752 -31.2418 38.3441 35.2472 -85.2565 -57.8687 -68.3102 -109.0314 -12.206 -8.18198 22.8501 4.7327 -32.0876 0.0 53.8306 0.0 -25.2873 -3.49882 -3.91626 0.0 0.0 0.0 0.0 0.0 0.0 110.026 -6.15569 -1.06144 20.6237 -1.38821 -440.03 0.0 82.154 0.0 -61.3531 45.4216 4.23794 0.0 0.0 0.0 0.0 0.0 0.0 -13.9436 0.283508 -20.7291 0.0 6.03681 0.0 -4.47693 -2.5981007 16.7293 0.0 -12.0993805 0.0 -15.3192 -13.2676 367.892 0.0 36.1496 0.0 14.4 -9.7841 -11.1673 0.0 -18.55909 0.0 
  -1.3926199340820313 4.170029907226563 9.131339721679687 93.98 82.8976 264.599 8.18871 -17.492 6.44162 -9.28221 15.4096 2.91027 -31.0524 38.3044 35.1261 -85.5243 -57.8861 -68.6594 -109.0341 -12.1572 -8.23249 22.8571 4.78476 -31.9238 0.0 53.8196 0.0 -25.291 -3.59137 -3.90131 0.0 0.0 0.0 0.0 0.0 0.0 109.9956 -6.22942 -0.94753 20.6323 -1.32202 -439.944 0.0 82.1845 0.0 -61.1864 45.588 4.14394 0.0 0.0 0.0 0.0 0.0 0.0 -13.8668 0.246311 -20.7643 0.0 6.02765 0.0 -4.48047 -2.5531006 16.7879 0.0 -12.09663 0.0 -15.2376 -13.2752 367.929 0.0 36.0761 0.0 14.4777 -9.707001 -11.1424 0.0 -18.59504 0.0 
  -1.3978900146484374 4.177479858398438 9.133380126953124 93.9598 82.9333 264.654 8.10835 -17.4594 6.39288 -9.24665 15.6871 2.95579 -30.8234 38.2719 34.943 -85.6485 -57.9016 -68.8584 -109.0464 -12.0361 -8.20399 22.9372 4.79004 -31.7999 0.0 53.8027 0.0 -25.1641 -3.73896 -3.88991 0.0 0.0 0.0 0.0 0.0 0.0 109.9216 -6.35298 -0.856728 20.7135 -1.17707 -439.854 0.0 82.1761 0.0 -60.9086 45.7681 3.96701 0.0 0.0 0.0 0.0 0.0 0.0 -13.8034 0.211394 -20.8783 0.0 6.02419 0.0 -4.51933 -2.5144997 16.8685 0.0 -12.08806 0.0 -15.1974 -13.2539 367.873 0.0 35.9787 0.0 14.5431 -9.6481 -11.0557 0.0 -18.58116 0.0 
  -1.4020599365234374 4.185490112304688 9.135269775390626 94.06 82.966 264.554 8.04607 -17.3795 6.34135 -9.22848 15.8677 2.96152 -30.6551 38.2702 34.8299 -85.8649 -57.9406 -69.1104 -109.0594 -11.992 -8.14997 23.0085 4.81009 -31.8353 0.0 53.7625 0.0 -25.171 -3.7364 -3.96062 0.0 0.0 0.0 0.0 0.0 0.0 109.8824 -6.37404 -0.758245 20.7182 -1.13088 -439.747 0.0 82.2119 0.0 -60.467 45.9913 3.47573 0.0 0.0 0.0 0.0 0.0 0.0 -13.7503 0.153257 -20.9457 0.0 6.02566 0.0 -4.54501 -2.4801998 16.9477 0.0 -12.12473 0.0 -15.1629 -13.2715 367.842 0.0 35.8906 0.0 14.6165 -9.5685005 -10.9586 0.0 -18.631691 0.0 
  -1.4049699401855469 4.193900146484375 9.136900024414063 94.1751 82.9942 264.451 8.00684 -17.2301 6.29091 -9.23043 15.9298 2.92167 -30.5644 38.3152 34.7882 -86.1451 -57.993 -69.4195 -109.0573 -11.9987 -8.03703 23.0616 4.84199 -31.8979 0.0 53.7354 0.0 -25.0235 -3.72442 -3.99549 0.0 0.0 0.0 0.0 0.0 0.0 109.858 -6.36356 -0.808177 20.7209 -1.05 -439.641 0.0 82.2322 0.0 -60.2707 46.031 3.36201 0.0 0.0 0.0 0.0 0.0 0.0 -13.7066 0.0876971 -20.9538 0.0 6.03331 0.0 -4.55162 -2.4451008 16.9604 0.0 -12.1028595 0.0 -15.1705 -13.3029 367.687 0.0 35.8288 0.0 14.6589 -9.481199 -10.7913 0.0 -18.5971 0.0 
  -1.407779998779297 4.202980041503906 9.138499755859375 94.3421 83.0345 264.3 8.01439 -17.0426 6.26921 -9.30541 15.9449 2.86432 -30.5815 38.4097 34.8972 -86.4993 -58.0755 -69.9313 -109.043304 -12.0418 -7.91263 23.144 4.92679 -32.0714 0.0 53.7496 0.0 -24.9917 -3.77183 -4.08635 0.0 0.0 0.0 0.0 0.0 0.0 109.9102 -6.34823 -0.835736 20.6926 -0.982665 -439.578 0.0 82.2377 0.0 -60.0897 46.1894 3.50545 0.0 0.0 0.0 0.0 0.0 0.0 -13.6487 -0.000669145 -20.8544 0.0 6.06635 0.0 -4.57694 -2.4134007 16.8446 0.0 -12.1306 0.0 -15.1869 -13.3303 367.458 0.0 35.7313 0.0 14.719 -9.3703 -10.572 0.0 -18.57724 0.0 
  -1.4097799682617187 4.210710144042968 9.139979858398437 94.4586 83.0588 264.204 7.99101 -16.883 6.21534 -9.33289 15.9741 2.80092 -30.6479 38.4729 35.0305 -86.7937 -58.1386 -70.2644 -109.022 -12.1004 -7.88543 23.1579 5.0475 -32.1955 0.0 53.7918 0.0 -24.9324 -3.84626 -3.94439 0.0 0.0 0.0 0.0 0.0 0.0 109.9276 -6.30114 -0.895034 20.6794 -0.932798 -439.467 0.0 82.2594 0.0 -59.8796 46.3199 3.49473 0.0 0.0 0.0 0.0 0.0 0.0 -13.6093 -0.0645861 -20.8173 0.0 6.07436 0.0 -4.5863 -2.3598003 16.7892 0.0 -12.13629 0.0 -15.2056 -13.3669 367.283 0.0 35.6808 0.0 14.7668 -9.270599 -10.411 0.0 -18.56061 0.0 
  -1.4117599487304688 4.218699951171875 9.141309814453125 94.5633 83.0763 264.065 7.96906 -16.7195 6.19491 -9.35652 16.0056 2.77448 -30.6662 38.5883 35.104 -87.1433 -58.2332 -70.592 -108.946396 -12.1685 -7.84453 23.0973 5.1993 -32.3099 0.0 53.8411 0.0 -24.9028 -3.83741 -3.94204 0.0 0.0 0.0 0.0 0.0 0.0 109.919205 -6.22718 -0.965344 20.7239 -0.921811 -439.364 0.0 82.2553 0.0 -59.8582 46.3717 3.43029 0.0 0.0 0.0 0.0 0.0 0.0 -13.5764 -0.118181 -20.8149 0.0 6.05828 0.0 -4.65585 -2.3666992 16.7996 0.0 -12.110331 0.0 -15.2171 -13.4336 367.15 0.0 35.6386 0.0 14.7409 -9.160299 -10.2941 0.0 -18.540741 0.0 
  -1.4136599731445312 4.227049865722656 9.142169799804687 94.545 83.0765 264.026 7.90639 -16.5302 6.18629 -9.33707 15.9765 2.77709 -30.6326 38.7915 35.0948 -87.4388 -58.3714 -70.8156 -108.850296 -12.2597 -7.67497 23.0027 5.42239 -32.4931 0.0 53.872 0.0 -24.8191 -3.87001 -3.85962 0.0 0.0 0.0 0.0 0.0 0.0 109.877396 -6.09097 -0.994966 20.7979 -1.05344 -439.336 0.0 82.2125 0.0 -59.8964 46.4942 3.02548 0.0 0.0 0.0 0.0 0.0 0.0 -13.5639 -0.162668 -20.8349 0.0 6.04238 0.0 -4.66384 -2.357401 16.8717 0.0 -12.09192 0.0 -15.2234 -13.5116 367.092 0.0 35.6294 0.0 14.721 -9.087999 -10.2164 0.0 -18.54397 0.0 
  -1.4143699645996093 4.235459899902343 9.14291015625 94.613 83.0682 263.867 7.8391 -16.3062 6.21094 -9.26119 15.9187 2.81467 -30.6893 38.9195 35.1812 -87.6316 -58.4508 -71.031 -108.8519 -12.138 -7.82837 22.9739 5.50718 -32.2005 0.0 53.9628 0.0 -24.645 -3.92309 -3.67834 0.0 0.0 0.0 0.0 0.0 0.0 109.7649 -6.0198 -1.00518 20.9295 -1.19776 -439.345 0.0 82.132 0.0 -59.9544 46.5658 2.75316 0.0 0.0 0.0 0.0 0.0 0.0 -13.5713 -0.241268 -20.7813 0.0 6.06196 0.0 -4.64167 -2.3290005 16.9176 0.0 -12.12591 0.0 -15.2224 -13.611 367.119 0.0 35.6157 0.0 14.6929 -9.012501 -10.1819 0.0 -18.57494 0.0 
  -1.414429931640625 4.243049926757813 9.143270263671875 94.6548 83.0582 263.73 7.78976 -16.0234 6.27727 -9.19861 15.7653 2.86222 -30.7482 38.9636 35.2752 -87.4823 -58.4821 -71.0595 -108.8594 -12.003 -8.0072 22.9587 5.62343 -31.8574 0.0 54.0624 0.0 -24.6679 -4.01909 -3.77925 0.0 0.0 0.0 0.0 0.0 0.0 109.6455 -5.97497 -0.989634 21.0601 -1.41257 -439.395 0.0 82.0579 0.0 -59.7317 46.7356 2.82836 0.0 0.0 0.0 0.0 0.0 0.0 -13.5878 -0.32028 -20.7091 0.0 6.09928 0.0 -4.65834 -2.3181 16.9337 0.0 -12.15308 0.0 -15.212 -13.7052 367.196 0.0 35.6097 0.0 14.6668 -8.9657 -10.1856 0.0 -18.57842 0.0 
  -1.4138499450683595 4.250260009765625 9.1439599609375 94.3331 83.0736 263.911 7.75909 -15.6843 6.34568 -9.10499 15.6107 2.89503 -30.8387 38.8312 35.4403 -87.1469 -58.4421 -70.9601 -108.8833 -11.9556 -8.1135 22.9033 5.73609 -31.6947 0.0 54.1536 0.0 -24.883 -4.15245 -3.62391 0.0 0.0 0.0 0.0 0.0 0.0 109.4756 -5.87825 -0.937944 21.2283 -1.74924 -439.532 0.0 82.0157 0.0 -59.7191 46.6662 3.0001 0.0 0.0 0.0 0.0 0.0 0.0 -13.583 -0.336058 -20.676 0.0 6.0976 0.0 -4.65308 -2.3003998 17.0439 0.0 -12.16172 0.0 -15.1561 -13.7427 367.38 0.0 35.5542 0.0 14.6557 -8.9133 -10.2472 0.0 -18.57426 0.0 
  -1.4130099487304688 4.25781005859375 9.144990234375 93.3718 83.0975 264.671 7.75601 -15.1867 6.45128 -9.01909 15.3508 2.91376 -31.1844 38.5569 35.8995 -86.7032 -58.3056 -70.925 -108.9683 -11.8991 -8.11594 22.9198 5.72177 -31.5122 0.0 54.2576 0.0 -24.8486 -4.3995 -2.69135 0.0 0.0 0.0 0.0 0.0 0.0 109.3091 -5.66934 -0.936469 21.4262 -2.26056 -439.578 0.0 81.9587 0.0 -59.7411 46.7259 2.57855 0.0 0.0 0.0 0.0 0.0 0.0 -13.576 -0.300351 -20.4409 0.0 6.12394 0.0 -4.65737 -2.2672005 17.0182 0.0 -12.18231 0.0 -15.0805 -13.7321 367.634 0.0 35.4965 0.0 14.5992 -8.840099 -10.3413 0.0 -18.55472 0.0 
  -1.4111599731445312 4.26531005859375 9.1452197265625 92.2441 83.1128 265.551 7.77612 -14.7408 6.64161 -8.93882 15.3608 3.06421 -31.2616 37.7857 36.0958 -85.8506 -57.9126 -70.4832 -109.037704 -11.7553 -8.07532 22.8748 5.66249 -31.4712 0.0 54.3724 0.0 -24.6587 -5.0842 -1.38292 0.0 0.0 0.0 0.0 0.0 0.0 109.0494 -5.51473 -0.856261 21.7635 -2.8578 -439.564 0.0 81.8991 0.0 -59.796 46.8591 2.19048 0.0 0.0 0.0 0.0 0.0 0.0 -13.5868 -0.265082 -20.1545 0.0 6.17966 0.0 -4.66143 -2.2625008 16.981 0.0 -12.20027 0.0 -15.0327 -13.7505 367.833 0.0 35.4889 0.0 14.5137 -8.7446995 -10.3664 0.0 -18.59402 0.0 
  -1.408699951171875 4.274630126953125 9.145079956054687 91.1438 83.1055 266.324 7.76849 -14.3423 6.89402 -8.80288 15.5627 3.34073 -31.2177 36.789 36.1285 -85.1302 -57.3465 -70.1111 -109.0427 -11.5133 -8.46298 22.6579 5.73577 -31.1422 0.0 54.3337 0.0 -24.9586 -6.02326 0.1459 0.0 0.0 0.0 0.0 0.0 0.0 108.671 -5.3216 -0.713586 22.2677 -3.60855 -439.555 0.0 81.7823 0.0 -60.0587 46.9777 2.03813 0.0 0.0 0.0 0.0 0.0 0.0 -13.6257 -0.261004 -19.8923 0.0 6.25213 0.0 -4.68243 -2.2663002 17.0324 0.0 -12.21283 0.0 -15.0137 -13.857 368.036 0.0 35.5445 0.0 14.4749 -8.6252 -10.2879 0.0 -18.59811 0.0 
  -1.4066499328613282 4.28281005859375 9.14489013671875 89.252 83.1126 267.905 7.92021 -13.4349 7.21612 -9.1066 14.965 3.37569 -31.0817 36.3134 36.152 -85.339 -57.1632 -70.4357 -109.0904 -11.6667 -7.87557 22.998 5.78116 -31.5132 0.0 53.815 0.0 -25.3954 -6.85503 1.41432 0.0 0.0 0.0 0.0 0.0 0.0 108.5943 -4.88534 -1.06353 22.6807 -4.51682 -439.57 0.0 81.6623 0.0 -60.4539 46.7342 2.37814 0.0 0.0 0.0 0.0 0.0 0.0 -13.6523 -0.16483 -19.6034 0.0 6.34181 0.0 -4.71661 -2.294201 17.0468 0.0 -12.21957 0.0 -15.0023 -13.8446 368.169 0.0 35.5787 0.0 14.4139 -8.503401 -10.1524 0.0 -18.60343 0.0 
  -1.4041600036621094 4.2911898803710935 9.144320068359375 88.1128 83.0912 268.678 8.03595 -12.6317 7.56447 -9.37078 14.4231 3.48446 -30.9808 35.8023 36.2076 -85.7545 -56.9466 -70.9172 -109.0977 -11.8366 -7.30911 23.1883 5.90179 -31.838 0.0 53.0459 0.0 -25.5072 -7.71144 2.69147 0.0 0.0 0.0 0.0 0.0 0.0 108.502304 -4.56363 -1.30319 23.0562 -5.3177 -439.704 0.0 81.5611 0.0 -60.9654 46.4318 2.46336 0.0 0.0 0.0 0.0 0.0 0.0 -13.7012 -0.133461 -19.3603 0.0 6.37372 0.0 -4.69575 -2.2922 17.1824 0.0 -12.23176 0.0 -15.0372 -13.9615 368.246 0.0 35.6386 0.0 14.4115 -8.3773 -9.88496 0.0 -18.587 0.0 
  -1.4012899780273438 4.298779907226563 9.143599853515624 87.7199 83.0735 268.757 8.02206 -12.4254 7.8975 -9.27242 14.8625 3.91169 -30.6588 34.8141 35.9262 -85.8013 -56.3866 -70.9309 -109.1312 -11.6563 -7.08517 22.9826 6.07827 -32.1553 0.0 52.1685 0.0 -25.4657 -8.6351 3.75523 0.0 0.0 0.0 0.0 0.0 0.0 108.1074 -4.49302 -0.941161 23.541 -6.04395 -439.941 0.0 81.466 0.0 -61.1492 46.1869 2.87066 0.0 0.0 0.0 0.0 0.0 0.0 -13.7398 -0.129041 -19.4127 0.0 6.31344 0.0 -4.70892 -2.2961998 17.5226 0.0 -12.235 0.0 -15.1015 -14.115 368.23 0.0 35.6468 0.0 14.4421 -8.2582 -9.5564 0.0 -18.58462 0.0 
  -1.3986199951171876 4.305299987792969 9.143610229492188 88.3819 83.0696 267.843 8.10934 -11.8229 8.16715 -9.48805 14.248 3.96451 -30.6924 34.3212 36.1034 -86.2808 -56.1768 -71.3708 -109.133804 -11.6652 -6.84034 22.9582 5.96403 -32.0142 0.0 51.1633 0.0 -25.3819 -9.30688 4.6928 0.0 0.0 0.0 0.0 0.0 0.0 108.028 -4.17328 -1.18763 23.8222 -6.80717 -440.024 0.0 81.4009 0.0 -61.5184 45.8347 2.30993 0.0 0.0 0.0 0.0 0.0 0.0 -13.7495 -0.265639 -19.1611 0.0 6.29751 0.0 -4.6803 -2.2684994 17.5005 0.0 -12.242559 0.0 -15.1569 -14.3435 368.166 0.0 35.619 0.0 14.4776 -8.124399 -9.27419 0.0 -18.58907 0.0 
  -1.3960200500488282 4.310429992675782 9.144349975585937 89.1274 83.0839 266.896 8.13937 -11.4465 8.38921 -9.55901 14.0147 4.09651 -30.6303 33.629 36.1679 -86.6115 -55.8523 -71.6025 -109.257996 -11.4829 -6.74441 22.8577 5.74785 -32.053 0.0 49.9968 0.0 -25.5245 -9.80057 5.82522 0.0 0.0 0.0 0.0 0.0 0.0 107.8048 -3.98506 -1.25528 24.1778 -7.45364 -440.019 0.0 81.3124 0.0 -61.2807 45.7553 2.25273 0.0 0.0 0.0 0.0 0.0 0.0 -13.7274 -0.342079 -19.1485 0.0 6.173 0.0 -4.69199 -2.2229004 17.6394 0.0 -12.25272 0.0 -15.1991 -14.5218 368.07 0.0 35.5385 0.0 14.5089 -7.9993 -9.01254 0.0 -18.58475 0.0 
